<svg width="41" height="74" xmlns="http://www.w3.org/2000/svg">

 <g>
  <title>background</title>
  <rect fill="none" id="canvas_background" height="76" width="43" y="-1" x="-1"/>
 </g>
 <g>
  <title>Layer 1</title>
  <path fill="#7C468A" d="m26.23927,6.47052l-11.5,0l0,-3.6l11.5,0l0,3.6" id="svg_134"/>
  <path fill="#8C4E9C" d="m26.23927,6.47052l0,36.5l-11.5,0l0,-36.5l11.5,0" id="svg_135"/>
  <path fill="#D7D7D7" d="m26.23927,6.47052l0,-3.6l11.9,0l0,3.6l-11.9,0m-11.5,-3.6l0,3.6l-11.85,0l0,-3.6l11.85,0" id="svg_136"/>
  <path fill="#FFCC00" d="m14.73927,2.87052l-11.85,0l-2.2,0l0,-2.2l39.65,0l0,2.2l-2.2,0l-11.9,0l-11.5,0" id="svg_137"/>
  <path fill="#EFEFEF" d="m14.73927,6.47052l0,36.5l-11.85,-11.9l0,-24.6l11.85,0m11.5,36.5l0,-36.5l11.9,0l0,24.6l-11.9,11.9" id="svg_138"/>
  <path fill="#F5C504" d="m5.73927,60.02052l3.85,2.95l1.55,4.65l5.05,0.1l4.05,2.8l4.2,-2.55l4.95,0l1.75,-4.55l4,-2.85l-1.4,-4.6l1.55,-4.55l-3.85,-2.9l-1.55,-4.7l-5.05,-0.1l-4,-2.9l-4.15,2.8l-4.95,0l-1.85,4.5l-3.95,2.8l1.25,4.6l-1.45,4.5m-0.95,-4.65l-1.65,-5.45l4.8,-3.35l2.1,-5.3l5.9,-0.05l4.9,-3.1l4.85,3.3l5.95,0.15l1.85,5.5l4.7,3.45l-1.85,5.5l1.6,5.4l-4.75,3.4l-2,5.4l-6.05,0l-4.95,3.1l-4.8,-3.3l-5.95,-0.3l-1.85,-5.35l-4.65,-3.55l1.85,-5.45" id="svg_150"/>
  <path fill="#DEB307" d="m5.73927,60.02052l1.45,-4.5l-1.25,-4.6l3.95,-2.8l1.85,-4.5l4.95,0l4.15,-2.8l4,2.9l5.05,0.1l1.55,4.7l3.85,2.9l-1.55,4.55l1.4,4.6l-4,2.85l-1.75,4.55l-4.95,0l-4.2,2.55l-4.05,-2.8l-5.05,-0.1l-1.55,-4.65l-3.85,-2.95m17.6,-11.95l-2.55,-1.85l-2.65,1.75l-3.2,0l-1.15,2.9l-2.55,1.8l0.8,2.95l-0.95,2.85l2.5,1.9l1,3l3.2,0.05l2.6,1.8l2.7,-1.65l3.15,0l1.15,-2.9l2.55,-1.85l-0.9,-2.9l1,-2.95l-2.5,-1.85l-0.95,-3l-3.25,-0.05m2.1,4.45l1.75,1.3l-0.7,2.05l0.65,2.05l-1.8,1.3l-0.8,2l-2.2,0l-1.9,1.15l-1.8,-1.25l-2.25,0l-0.7,-2.1l-1.75,-1.35l0.65,-2l-0.55,-2.05l1.8,-1.25l0.8,-2.05l2.2,0l1.9,-1.25l1.75,1.3l2.3,0.05l0.65,2.1" id="svg_151"/>
  <path fill="#C7A006" d="m25.43927,52.52052l-0.65,-2.1l-2.3,-0.05l-1.75,-1.3l-1.9,1.25l-2.2,0l-0.8,2.05l-1.8,1.25l0.55,2.05l-0.65,2l1.75,1.35l0.7,2.1l2.25,0l1.8,1.25l1.9,-1.15l2.2,0l0.8,-2l1.8,-1.3l-0.65,-2.05l0.7,-2.05l-1.75,-1.3m-2.1,-4.45l3.25,0.05l0.95,3l2.5,1.85l-1,2.95l0.9,2.9l-2.55,1.85l-1.15,2.9l-3.15,0l-2.7,1.65l-2.6,-1.8l-3.2,-0.05l-1,-3l-2.5,-1.9l0.95,-2.85l-0.8,-2.95l2.55,-1.8l1.15,-2.9l3.2,0l2.65,-1.75l2.55,1.85" id="svg_152"/>
 </g>
</svg>