<svg width="41" height="74" xmlns="http://www.w3.org/2000/svg">

 <g>
  <title>background</title>
  <rect fill="none" id="canvas_background" height="76" width="43" y="-1" x="-1"/>
 </g>
 <g>
  <title>Layer 1</title>
  <path fill="#D7D7D7" d="m14.79444,7.74515l-0.2,-4.95l11.5,0l-0.2,4.95l-11.1,0" id="svg_153"/>
  <path fill="#BB3838" d="m14.79444,7.74515l-11.4,0l-0.65,-4.95l11.85,0l0.2,4.95m11.1,0l0.2,-4.95l11.9,0l-0.65,4.95l-11.45,0" id="svg_154"/>
  <path fill="#FFCC00" d="m26.09444,2.79515l-11.5,0l-11.85,0l-2.2,0l0,-2.2l39.65,0l0,2.2l-2.2,0l-11.9,0" id="svg_155"/>
  <path fill="#D03E3E" d="m3.39444,7.74515l11.4,0l1.55,42.65l-9.55,-11.1l-3.4,-31.55m21,42.65l1.5,-42.65l11.45,0l-3.4,31.55l-9.55,11.1" id="svg_156"/>
  <path fill="#EFEFEF" d="m24.39444,50.39515l-8.05,0l-1.55,-42.65l11.1,0l-1.5,42.65" id="svg_157"/>
  <path fill="#C9B18F" d="m20.44444,52.79515q-3.15,0 -5.3,2.15q-2.15,2.1 -2.15,5.2q0,3.1 2.15,5.25q2.15,2.2 5.3,2.2q3,0 5.15,-2.2q2.2,-2.15 2.2,-5.25q0,-3.1 -2.2,-5.2q-2.15,-2.15 -5.15,-2.15m-9.3,7.35q0,-3.85 2.7,-6.5q2.7,-2.7 6.6,-2.65q3.75,-0.05 6.45,2.65q2.7,2.65 2.75,6.5q-0.05,3.9 -2.75,6.6q-2.7,2.7 -6.45,2.7q-3.9,0 -6.6,-2.7q-2.7,-2.7 -2.7,-6.6" id="svg_158"/>
  <path fill="#A28D70" d="m11.14444,60.14515q0,3.9 2.7,6.6q2.7,2.7 6.6,2.7q3.75,0 6.45,-2.7q2.7,-2.7 2.75,-6.6q-0.05,-3.85 -2.75,-6.5q-2.7,-2.7 -6.45,-2.65q-3.9,-0.05 -6.6,2.65q-2.7,2.65 -2.7,6.5m9.3,-7.35q3,0 5.15,2.15q2.2,2.1 2.2,5.2q0,3.1 -2.2,5.25q-2.15,2.2 -5.15,2.2q-3.15,0 -5.3,-2.2q-2.15,-2.15 -2.15,-5.25q0,-3.1 2.15,-5.2q2.15,-2.15 5.3,-2.15m-4.25,3.15q-1.75,1.75 -1.75,4.2q0,2.45 1.75,4.2q1.7,1.7 4.25,1.7q2.35,0 4.05,-1.7q1.8,-1.75 1.8,-4.2q0,-2.45 -1.8,-4.2q-1.7,-1.7 -4.05,-1.65q-2.55,-0.05 -4.25,1.65m-5.15,-5.1q3.9,-3.9 9.4,-3.9q5.45,0 9.3,3.9q3.9,3.9 3.9,9.3q0,5.55 -3.9,9.4q-3.85,3.8 -9.3,3.8q-5.5,0 -9.4,-3.8q-3.85,-3.85 -3.85,-9.4q0,-5.4 3.85,-9.3" id="svg_159"/>
  <path fill="#B59E7D" d="m16.19444,55.94515q1.7,-1.7 4.25,-1.65q2.35,-0.05 4.05,1.65q1.8,1.75 1.8,4.2q0,2.45 -1.8,4.2q-1.7,1.7 -4.05,1.7q-2.55,0 -4.25,-1.7q-1.75,-1.75 -1.75,-4.2q0,-2.45 1.75,-4.2" id="svg_160"/>
 </g>
</svg>